<svg width="24" height="24" viewBox="0 0 24 24" fill="none" xmlns="http://www.w3.org/2000/svg">
<path fill-rule="evenodd" clip-rule="evenodd" d="M5.63663 18.7881C5.44137 18.5929 5.44137 18.2763 5.63663 18.081L18.3646 5.35309C18.5598 5.15783 18.8764 5.15783 19.0717 5.35309C19.2669 5.54836 19.2669 5.86494 19.0717 6.0602L6.34374 18.7881C6.14848 18.9834 5.8319 18.9834 5.63663 18.7881Z" fill="white"/>
<path fill-rule="evenodd" clip-rule="evenodd" d="M5.63662 5.35355C5.83188 5.15829 6.14846 5.15829 6.34373 5.35355L19.0716 18.0815C19.2669 18.2767 19.2669 18.5933 19.0716 18.7886C18.8764 18.9838 18.5598 18.9838 18.3645 18.7886L5.63662 6.06066C5.44136 5.8654 5.44136 5.54882 5.63662 5.35355Z" fill="white"/>
</svg>
