<svg width="41" height="35" viewBox="0 0 41 35" fill="none" xmlns="http://www.w3.org/2000/svg">
<path d="M11.1613 0C12.0607 0.361271 12.3251 0.894629 12.7301 1.74441C13.0753 2.83262 13.2518 4.422 12.7255 5.47458C12.8371 5.41308 12.9488 5.35158 13.0638 5.28822C15.1851 4.16854 17.1573 3.55848 19.5687 3.71489C19.5687 4.0375 19.5687 4.36011 19.5687 4.69249C19.4616 4.70938 19.3545 4.72627 19.2441 4.74367C18.1554 4.93663 17.1207 5.2227 16.0738 5.57234C15.9482 5.6141 15.8227 5.65586 15.6934 5.69888C15.0711 5.91109 14.4769 6.13833 13.8986 6.45218C14.0498 6.50687 14.2011 6.56157 14.3569 6.61791C15.8277 7.18406 17.3683 7.80898 18.0458 9.33C18.0967 9.47719 18.1476 9.62438 18.2001 9.77603C17.8867 9.93538 17.573 10.0941 17.2591 10.2526C17.0845 10.3411 16.9098 10.4295 16.7298 10.5207C15.4381 11.1411 13.9109 11.2164 12.5491 10.7582C11.6814 10.3329 10.9045 9.83818 10.1837 9.18947C9.12974 10.3206 8.39065 11.5554 7.64195 12.9044C7.73949 12.8479 7.83702 12.7914 7.93752 12.7333C9.37527 11.9899 10.8786 11.8433 12.4536 12.2559C12.8843 12.4156 12.8843 12.4156 13.5076 12.7088C13.5076 13.8349 12.9496 14.4496 12.2084 15.2262C10.7949 16.5014 9.51982 16.7263 7.64271 16.6727C7.05538 16.6193 7.05538 16.6193 6.46882 16.4237C6.46882 17.9077 6.46882 19.3917 6.46882 20.9207C6.92048 20.5336 7.37213 20.1464 7.83747 19.7476C9.04824 19.0009 10.1252 18.74 11.5524 18.77C12.0108 18.8922 12.4675 19.0215 12.921 19.161C13.2291 19.1148 13.5371 19.0678 13.8446 19.0176C14.8655 18.898 15.9012 18.9379 16.9276 18.9395C17.1819 18.9393 17.4362 18.9392 17.6982 18.939C18.2349 18.9387 18.7716 18.9391 19.3084 18.94C19.9918 18.9411 20.6752 18.9405 21.3586 18.9393C22.016 18.9384 22.6735 18.9391 23.3309 18.9395C23.5742 18.9391 23.8174 18.9387 24.068 18.9383C25.0634 18.941 26.0385 18.9525 27.0268 19.0771C27.7751 19.2092 27.7751 19.2092 28.4527 18.9655C29.973 18.5387 31.2328 18.942 32.6052 19.6407C33.0596 19.9431 33.0596 19.9431 34.0372 20.9207C34.1018 19.4367 34.1663 17.9527 34.2327 16.4237C34.0392 16.4883 33.8456 16.5528 33.6462 16.6193C31.8801 16.78 30.4069 16.7259 28.9537 15.6417C28.1389 14.9066 27.4942 14.2549 27.194 13.1854C27.194 13.0282 27.194 12.8709 27.194 12.7088C28.595 11.9083 30.271 11.8617 31.8246 12.2552C32.2531 12.4156 32.2531 12.4156 32.8641 12.7088C32.1748 11.494 31.4605 10.4174 30.5179 9.38499C30.0332 9.61745 29.6275 9.85304 29.1859 10.1671C27.8539 11.0028 26.3893 11.1734 24.8478 10.9492C24.0218 10.6267 23.2626 10.2294 22.5015 9.77603C22.9599 8.45076 23.8348 7.73316 25.0815 7.12505C25.6513 6.88728 26.2224 6.66216 26.803 6.45218C25.0718 5.7455 23.4655 5.16451 21.598 4.95141C21.1329 4.88802 21.1329 4.88802 20.9373 4.69249C20.9294 4.36672 20.929 4.04065 20.9373 3.71489C23.421 3.53242 25.6308 4.26596 27.7806 5.47458C27.7636 5.16986 27.7636 5.16986 27.7462 4.85899C27.6823 3.21446 27.6595 1.73839 28.7582 0.391041C29.1828 0.145113 29.1828 0.145113 29.5403 0C30.9171 1.19637 31.7593 2.30481 31.9529 4.15405C31.991 5.47049 31.8035 6.42123 31.2999 7.6253C31.3711 8.31683 31.6765 8.66743 32.1431 9.16503C33.6462 10.8258 33.6462 10.8258 33.6462 11.7312C33.7752 11.7312 33.9043 11.7312 34.0372 11.7312C34.0453 11.6022 34.0534 11.4732 34.0617 11.3402C34.482 9.89906 35.5381 9.01443 36.7455 8.19888C37.1656 8.01635 37.1656 8.01635 37.5856 8.011C37.9476 8.21187 37.9476 8.21187 38.1867 8.72816C38.5831 10.4412 38.5586 12.1065 37.6681 13.6483C37.1102 14.4282 36.4705 15.2071 35.6014 15.6417C35.6014 16.1578 35.6014 16.674 35.6014 17.2058C35.7304 17.0647 35.8595 16.9235 35.9924 16.7781C36.8412 15.927 37.9823 15.0845 39.2147 15.036C39.3894 15.0383 39.564 15.0405 39.744 15.0429C40.0083 15.0455 40.0083 15.0455 40.2779 15.0482C40.4122 15.0505 40.5465 15.0528 40.6849 15.0551C40.8589 16.8721 40.3093 17.9844 39.3774 19.5032C38.2308 20.6188 37.0039 21.2526 35.4059 21.3117C35.8261 21.7463 36.2699 22.1272 36.7379 22.5093C38.3603 23.923 39.4951 26.0034 39.7544 28.1544C39.8679 29.9428 39.8629 31.5597 38.7297 33.043C37.9559 33.8938 37.0991 34.3701 35.949 34.4619C35.5893 34.4629 35.5893 34.4629 35.2223 34.4639C35.0211 34.4652 35.0211 34.4652 34.8158 34.4666C34.3676 34.4691 33.9195 34.4688 33.4713 34.4684C33.1495 34.4696 32.8276 34.4709 32.5058 34.4724C31.6324 34.4759 30.759 34.4768 29.8857 34.477C29.3399 34.4773 28.7941 34.4781 28.2484 34.4792C26.3442 34.4828 24.44 34.4844 22.5357 34.4841C20.761 34.4839 18.9864 34.488 17.2117 34.4942C15.6875 34.4993 14.1634 34.5014 12.6392 34.5011C11.7291 34.501 10.819 34.5021 9.9089 34.5063C9.05303 34.5101 8.19724 34.5101 7.34136 34.5072C7.02751 34.5068 6.71365 34.5078 6.39981 34.5101C5.97079 34.5131 5.54205 34.5113 5.11305 34.5083C4.87317 34.5085 4.63329 34.5087 4.38614 34.509C3.34888 34.3547 2.75087 33.8265 2.03295 33.0919C0.872939 31.4616 0.820445 29.9206 0.994245 27.9594C1.47616 25.4093 2.70434 23.5021 4.70914 21.8983C4.90732 21.7055 5.10376 21.5108 5.2957 21.3117C5.07794 21.3037 4.86018 21.2956 4.63582 21.2873C3.20283 21.1018 1.9874 20.2997 1.10423 19.1732C0.182492 17.7919 -0.072386 16.6939 0.0166419 15.0551C1.68496 14.9475 2.94927 15.2944 4.33032 16.2527C4.70914 16.6193 4.70914 16.6193 4.90466 17.0103C5.14001 16.3945 5.14001 16.3945 5.10018 15.6417C4.75273 15.2483 4.36966 14.9527 3.95531 14.6312C3.1695 13.9599 2.68694 13.0944 2.36289 12.1223C2.28649 10.708 2.24523 9.35168 2.75393 8.01635C4.00915 8.04853 4.81946 8.74106 5.68674 9.58051C6.1229 10.1433 6.50361 10.7241 6.85986 11.3402C7.0368 11.0786 7.0368 11.0786 7.2173 10.8117C7.3751 10.5805 7.53294 10.3493 7.69083 10.1182C7.7682 10.0035 7.84558 9.88884 7.9253 9.77069C8.36989 9.12202 8.82135 8.55404 9.40163 8.01635C9.35929 7.90469 9.31695 7.79304 9.27332 7.678C8.62671 5.79505 8.48458 3.86155 9.31915 2.01402C9.80925 1.22097 10.4614 0.608204 11.1613 0Z" fill="#AD6F2F"/>
<path d="M10.9169 20.1142C11.1457 20.1177 11.3746 20.1212 11.6104 20.1249C11.872 20.1317 11.872 20.1317 12.1389 20.1386C11.8547 20.7329 11.5256 21.2808 11.1735 21.8372C10.1763 23.505 9.89019 24.8449 9.98816 26.7863C10.1817 26.7863 10.3753 26.7863 10.5747 26.7863C10.5939 26.6374 10.613 26.4884 10.6328 26.3349C10.962 24.0612 11.7119 21.9579 13.6175 20.5297C14.6699 19.9163 15.8502 20.0579 17.0269 20.1386C16.7547 20.7182 16.4338 21.2194 16.0615 21.7394C15.479 22.6005 15.142 23.4398 14.8762 24.4401C14.821 24.6333 14.821 24.6333 14.7647 24.8304C14.6747 25.2499 14.6613 25.6246 14.6684 26.0531C14.6725 26.2951 14.6765 26.537 14.6807 26.7863C14.8742 26.7863 15.0678 26.7863 15.2672 26.7863C15.5124 26.296 15.5392 25.8642 15.6094 25.3199C15.9215 23.4173 16.6892 21.9419 18.2 20.7252C19.1507 20.0845 20.0169 19.9735 21.1328 20.1386C22.6925 20.5979 23.7245 21.8149 24.5056 23.1936C25.0301 24.3195 25.2094 25.5731 25.4343 26.7863C25.6279 26.7863 25.8214 26.7863 26.0209 26.7863C26.1592 24.7106 25.5569 22.9738 24.333 21.2995C24.0694 20.926 23.8684 20.552 23.6746 20.1386C25.3038 20.0591 26.2952 20.1771 27.695 21.0307C29.2573 22.593 29.9311 24.6339 30.1268 26.7863C30.3204 26.7863 30.5139 26.7863 30.7133 26.7863C30.902 24.694 30.3679 22.8554 29.0881 21.1773C28.988 21.0596 28.888 20.9419 28.7849 20.8207C28.5626 20.5297 28.5626 20.5297 28.5626 20.1386C30.2873 20.0351 31.5077 20.0806 32.8381 21.2384C34.2642 22.7074 34.914 24.5739 35.0148 26.5908C35.2729 26.6553 35.531 26.7198 35.7969 26.7863C35.8768 25.4019 35.5826 24.2056 35.2103 22.8759C36.8889 23.8351 37.6271 25.2579 38.3807 26.9956C38.5596 27.6631 38.5285 28.0799 38.3387 28.7415C37.4808 29.3693 36.6325 29.463 35.6014 29.3281C35.2171 29.2357 34.8343 29.1375 34.4527 29.0348C32.3278 28.4924 31.1266 28.7031 29.2132 29.7492C28.0611 30.3561 27.0723 30.5299 25.7969 30.1958C25.3872 30.0558 24.9902 29.8992 24.5911 29.7314C22.4382 28.8633 21.0427 28.7745 18.8477 29.5236C16.4627 30.2789 14.7857 30.412 12.4704 29.3541C11.1698 28.8075 10.3351 29.1265 9.08388 29.6214C8.8757 29.7121 8.66751 29.8028 8.45302 29.8963C7.77999 30.1301 7.36993 30.2103 6.66431 30.1102C6.19017 29.84 5.77108 29.5723 5.33233 29.2548C4.28612 28.5354 3.44984 28.1142 2.16734 27.9594C2.37558 26.2065 3.26891 24.5612 4.59913 23.4014C4.82804 23.222 5.059 23.045 5.29567 22.8759C5.49119 23.267 5.49119 23.267 5.38197 23.6282C5.32526 23.7711 5.26856 23.914 5.21013 24.0613C4.87214 25.0076 4.85704 25.7869 4.90463 26.7863C5.29176 26.6895 5.29176 26.6895 5.68671 26.5908C5.70133 26.4323 5.71595 26.2737 5.73101 26.1104C5.99534 23.8843 6.68408 22.2319 8.43775 20.7916C9.29813 20.1942 9.8553 20.093 10.9169 20.1142Z" fill="#F0CC7F"/>
<path d="M1.97182 29.1326C3.53442 28.9288 4.53161 29.7907 5.78066 30.6326C6.63561 31.0833 7.48253 31.0125 8.424 30.8923C8.93929 30.7172 9.42653 30.5064 9.92478 30.2881C10.8629 29.9207 11.5662 29.9529 12.4727 30.3309C12.665 30.4194 12.8573 30.5078 13.0554 30.599C15.07 31.4756 16.6976 31.1788 18.7133 30.5012C21.1516 29.6829 22.6519 29.7788 24.9875 30.8121C26.1472 31.3099 27.1378 31.5068 28.3495 31.0855C29.1704 30.7468 29.9607 30.404 30.7256 29.9513C32.1412 29.3791 33.5262 29.7077 34.9216 30.1728C36.3042 30.5523 37.4777 30.3724 38.7297 29.7191C38.6292 30.9505 38.329 31.8888 37.4186 32.7846C36.8007 33.1405 36.3334 33.118 35.622 33.1201C35.4186 33.1219 35.4186 33.1219 35.2112 33.1237C34.757 33.127 34.3029 33.126 33.8487 33.1251C33.523 33.1265 33.1973 33.1282 32.8716 33.1301C31.9869 33.1345 31.1022 33.135 30.2175 33.1347C29.479 33.1346 28.7404 33.1363 28.0019 33.1379C26.2594 33.1417 24.5169 33.1423 22.7744 33.1409C20.977 33.1396 19.1796 33.1441 17.3821 33.1514C15.8389 33.1574 14.2956 33.1596 12.7523 33.1588C11.8306 33.1584 10.909 33.1595 9.98728 33.1643C9.12031 33.1686 8.25348 33.1683 7.38652 33.1643C7.06857 33.1636 6.75061 33.1646 6.43267 33.1674C5.99802 33.171 5.56381 33.1685 5.12918 33.1645C4.76466 33.1647 4.76466 33.1647 4.39277 33.1649C3.51243 33.0026 3.1922 32.6883 2.55839 32.0654C1.98591 31.1473 1.90571 30.1904 1.97182 29.1326Z" fill="#F1CD7F"/>
<path d="M20.5463 10.1671C20.7763 10.6193 20.9863 11.0668 21.1817 11.5357C21.7538 12.5165 22.6289 12.9263 23.6746 13.2954C23.217 13.5242 22.7607 13.7456 22.2937 13.9553C21.2982 14.506 21.0573 15.1603 20.7418 16.2282C20.2446 15.9796 20.2061 15.7758 19.9842 15.275C19.6685 14.6276 19.4457 14.2209 18.7866 13.882C18.3343 13.7387 17.8783 13.606 17.4179 13.4909C17.6135 13.0999 17.6135 13.0999 17.9541 12.954C18.231 12.8642 18.508 12.7746 18.7851 12.6852C19.5833 12.3357 19.8636 11.7914 20.1919 11.0103C20.2928 10.7732 20.2928 10.7732 20.3958 10.5314C20.4455 10.4112 20.4951 10.2909 20.5463 10.1671Z" fill="#AD7030"/>
<path d="M29.8213 13.2221C31.2215 13.2341 32.3164 13.8166 33.3773 14.7007C33.6462 15.0551 33.6462 15.0551 33.6462 15.4461C32.1855 15.5338 30.94 15.5819 29.7357 14.664C29.3634 14.2907 29.0699 13.9196 28.7581 13.4909C29.0699 13.1791 29.3893 13.2396 29.8213 13.2221Z" fill="#F3E9E1"/>
<path d="M27.2917 7.97969C27.5115 7.98095 27.7313 7.98221 27.9577 7.98351C28.4562 8.01057 28.8703 8.06653 29.3447 8.21187C29.3447 8.34091 29.3447 8.46996 29.3447 8.60291C27.9773 9.62054 26.9235 9.91965 25.2388 9.77603C24.6278 9.58051 24.6278 9.58051 24.2612 9.38499C25.2732 8.3167 25.8095 7.96099 27.2917 7.97969Z" fill="#F3E9E1"/>
<path d="M15.6094 8.48071C16.0181 8.77437 16.2143 8.93296 16.4403 9.38499C15.3365 9.83785 14.2089 10.0342 13.0676 9.61412C12.4636 9.31657 11.9174 8.97663 11.3568 8.60291C11.3568 8.47387 11.3568 8.34482 11.3568 8.21187C12.7302 7.80519 14.3639 7.71354 15.6094 8.48071Z" fill="#F4E9E1"/>
<path d="M39.3163 16.4237C39.2374 17.5016 38.8744 18.1948 38.1431 18.9655C37.3509 19.5911 36.8233 19.9431 35.7969 19.9431C35.8758 18.8652 36.2388 18.172 36.97 17.4013C37.7622 16.7758 38.2899 16.4237 39.3163 16.4237Z" fill="#F4EAE3"/>
<path d="M1.38526 16.4237C2.45731 16.5022 3.17287 16.8497 3.92702 17.5969C4.44868 18.344 4.90463 19.0177 4.90463 19.9431C3.73483 19.8846 2.99173 19.3603 2.16734 18.5745C1.62257 17.8684 1.38526 17.336 1.38526 16.4237Z" fill="#F4EAE3"/>
<path d="M10.9658 1.95521C11.0949 1.95521 11.2239 1.95521 11.3569 1.95521C11.8943 2.9965 11.9432 4.0739 11.5929 5.18359C11.0962 6.36525 11.0962 6.36525 10.3793 6.84322C9.91072 5.75967 9.82288 4.68016 9.98824 3.51937C10.2363 2.93208 10.5264 2.41996 10.9658 1.95521Z" fill="#F5EBE4"/>
<path d="M10.6847 13.2587C10.9149 13.2546 10.9149 13.2546 11.1498 13.2503C11.5523 13.2954 11.5523 13.2954 11.9434 13.6864C10.5968 14.9647 9.66978 15.5033 7.79008 15.4599C7.67667 15.4553 7.56325 15.4508 7.4464 15.4461C7.4464 15.188 7.4464 14.93 7.4464 14.664C7.81071 14.3379 7.81071 14.3379 8.28958 14.0408C8.44609 13.9413 8.60261 13.8417 8.76387 13.7391C9.41937 13.3712 9.94444 13.2648 10.6847 13.2587Z" fill="#F5EBE4"/>
<path d="M3.53605 9.77603C4.05321 9.85007 4.27764 9.92925 4.64426 10.3122C4.79132 10.5186 4.79132 10.5186 4.94136 10.7292C5.04091 10.8658 5.14047 11.0024 5.24304 11.1431C5.70739 11.8775 5.70812 12.4841 5.699 13.3321C5.69724 13.5445 5.69547 13.757 5.69365 13.9759C5.69139 14.1385 5.68912 14.301 5.68678 14.4685C4.672 13.716 3.89392 12.9718 3.53605 11.7312C3.4787 11.0731 3.48749 10.4344 3.53605 9.77603Z" fill="#F5EBE5"/>
<path d="M29.3448 1.95521C29.6992 2.05297 29.6992 2.05297 30.1269 2.34625C30.7912 3.69861 30.9263 4.91183 30.5179 6.36664C30.4534 6.52391 30.3889 6.68118 30.3224 6.84322C29.4428 6.05617 29.0169 5.45131 28.9179 4.26097C28.8937 3.40416 28.9435 2.73267 29.3448 1.95521Z" fill="#F5ECE5"/>
<path d="M37.1657 9.77603C37.2665 11.1434 37.1733 12.1502 36.3836 13.2954C35.8703 13.882 35.8703 13.882 35.406 14.273C35.2769 14.273 35.1479 14.273 35.0149 14.273C34.9005 12.5432 35.089 11.4164 36.2003 10.0693C36.5791 9.77603 36.5791 9.77603 37.1657 9.77603Z" fill="#F5ECE6"/>
<path d="M26.6074 21.5073C27.7046 21.7654 28.1938 22.552 28.7581 23.4625C29.1149 24.2733 29.1912 24.9264 29.1492 25.8087C29.0201 25.8087 28.8911 25.8087 28.7581 25.8087C28.4722 25.2756 28.1874 24.7418 27.9027 24.2079C27.8221 24.0576 27.7414 23.9072 27.6583 23.7523C27.2666 23.0162 26.8938 22.2926 26.6074 21.5073Z" fill="#B17431"/>
<path d="M19.1776 21.7028C18.8699 22.5857 18.4065 23.3117 17.8945 24.0857C17.329 24.9272 17.329 24.9272 16.8314 25.8087C16.7023 25.8087 16.5733 25.8087 16.4403 25.8087C16.5247 24.2629 17.0068 23.0771 18.1267 21.9839C18.5911 21.7028 18.5911 21.7028 19.1776 21.7028Z" fill="#B07330"/>
<path d="M31.691 21.5073C32.5638 21.774 32.9532 22.1132 33.4506 22.8759C33.9828 23.938 34.1004 24.8242 34.0372 26.0042C33.5266 25.7489 33.4696 25.511 33.2299 24.9976C33.1527 24.8333 33.0754 24.669 32.9958 24.4997C32.8762 24.2403 32.8762 24.2403 32.7541 23.9757C32.6736 23.8043 32.593 23.6329 32.5101 23.4564C32.2085 22.8107 31.9165 22.1839 31.691 21.5073Z" fill="#B0722F"/>
<path d="M14.0941 21.5073C13.7542 22.4765 13.2345 23.3283 12.7132 24.2079C12.6234 24.362 12.5335 24.5161 12.441 24.6749C12.3122 24.8933 12.3122 24.8933 12.1809 25.116C12.1025 25.249 12.0241 25.3821 11.9433 25.5191C11.8788 25.6147 11.8143 25.7103 11.7479 25.8087C11.6833 25.8087 11.6188 25.8087 11.5523 25.8087C11.5842 24.3969 11.8148 23.3903 12.7255 22.2894C13.5662 21.5073 13.5662 21.5073 14.0941 21.5073Z" fill="#AF722F"/>
<path d="M8.61962 21.5073C8.74867 21.5718 8.87771 21.6363 9.01066 21.7028C8.30092 23.1223 7.59118 24.5418 6.85994 26.0042C6.79541 26.0042 6.73089 26.0042 6.66442 26.0042C6.54526 24.5267 6.81787 23.53 7.64202 22.2894C8.19192 21.7761 8.19192 21.7761 8.61962 21.5073Z" fill="#AF712F"/>
<path d="M21.5239 21.7028C22.3657 21.7963 22.7497 22.2487 23.2836 22.8759C23.8603 23.783 24.1755 24.5151 24.0656 25.6132C23.3548 24.9643 22.8653 24.2444 22.3548 23.438C22.2744 23.3143 22.194 23.1905 22.1112 23.063C21.5239 22.144 21.5239 22.144 21.5239 21.7028Z" fill="#AE702E"/>
<path d="M14.0941 14.8596C14.2231 14.8596 14.3522 14.8596 14.4851 14.8596C14.5376 14.9805 14.59 15.1015 14.644 15.2262C14.8675 15.7002 14.8675 15.7002 15.4627 16.0327C15.3377 16.0891 15.2127 16.1456 15.0839 16.2038C14.6509 16.3901 14.6509 16.3901 14.4851 16.8148C14.0941 16.8148 14.0941 16.8148 13.8008 16.5459C13.704 16.4411 13.6073 16.3362 13.5075 16.2282C13.3785 16.0992 13.2494 15.9701 13.1165 15.8372C13.2415 15.7847 13.3665 15.7323 13.4953 15.6783C13.9634 15.4683 13.9634 15.4683 14.0941 14.8596Z" fill="#B2793E"/>
<path d="M26.8029 14.8596C26.8876 14.9805 26.9723 15.1015 27.0596 15.2262C27.389 15.6846 27.389 15.6846 27.9761 16.0327C27.7946 16.0569 27.7946 16.0569 27.6095 16.0816C27.1579 16.1916 27.1579 16.1916 26.9496 16.6315C26.9012 16.7565 26.8528 16.8815 26.8029 17.0103C26.4803 16.6232 26.1577 16.236 25.8253 15.8372C26.0834 15.7726 26.3415 15.7081 26.6074 15.6416C26.6719 15.3836 26.7365 15.1255 26.8029 14.8596Z" fill="#B07437"/>
</svg>
