<?xml version="1.0" encoding="utf-8"?><svg xmlns="http://www.w3.org/2000/svg" xmlns:xlink="http://www.w3.org/1999/xlink"><symbol fill="currentColor" viewBox="0 0 24 24" id="arrow" xmlns="http://www.w3.org/2000/svg"><path fill-rule="evenodd" clip-rule="evenodd" d="M5.646 8.646a.5.5 0 0 1 .708 0L12 14.293l5.646-5.647a.5.5 0 0 1 .708.708l-6 6a.5.5 0 0 1-.708 0l-6-6a.5.5 0 0 1 0-.708Z"/></symbol><symbol fill="currentColor" viewBox="0 0 24 24" id="arrows" xmlns="http://www.w3.org/2000/svg"><path fill-rule="evenodd" clip-rule="evenodd" d="M12.646 6.646a.5.5 0 0 1 .708 0l5 5a.5.5 0 0 1 0 .708l-5 5a.5.5 0 0 1-.708-.708L17.293 12l-4.647-4.646a.5.5 0 0 1 0-.708ZM5.646 6.646a.5.5 0 0 1 .708 0l5 5a.5.5 0 0 1 0 .708l-5 5a.5.5 0 0 1-.708-.708L10.293 12 5.646 7.354a.5.5 0 0 1 0-.708Z"/></symbol><symbol fill="currentColor" viewBox="0 0 24 24" id="bell-off" xmlns="http://www.w3.org/2000/svg"><path fill-rule="evenodd" clip-rule="evenodd" d="M15.278 3.384a6.5 6.5 0 0 0-6.474-.049.5.5 0 1 1-.491-.87A7.5 7.5 0 0 1 19.499 9h-.5.5v4a.5.5 0 0 1-1 0V9a6.5 6.5 0 0 0-3.221-5.616ZM6.009 5.336a.5.5 0 0 1 .215.673A6.5 6.5 0 0 0 5.5 9V14a3.49 3.49 0 0 1-1.05 2.5H17a.5.5 0 0 1 0 1H2a.5.5 0 0 1 0-1A2.5 2.5 0 0 0 4.5 14V9m5.52 11.567a.5.5 0 0 1 .683.182 1.5 1.5 0 0 0 2.595 0 .5.5 0 0 1 .864.502 2.5 2.5 0 0 1-4.325 0 .5.5 0 0 1 .182-.684Z"/><path fill-rule="evenodd" clip-rule="evenodd" d="M.646.646a.5.5 0 0 1 .708 0l22 22a.5.5 0 0 1-.708.708l-22-22a.5.5 0 0 1 0-.708Z"/></symbol><symbol fill="currentColor" viewBox="0 0 24 24" id="box" xmlns="http://www.w3.org/2000/svg"><path fill-rule="evenodd" clip-rule="evenodd" d="m11.332 1.898-7.998 4h-.002A1.5 1.5 0 0 0 2.5 7.24v9.524a1.5 1.5 0 0 0 .824 1.349l8 4a1.5 1.5 0 0 0 1.342 0l8-4h.002a1.5 1.5 0 0 0 .832-1.343V7.24a1.5 1.5 0 0 0-.832-1.342h-.002l-7.998-4a1.502 1.502 0 0 0-1.335 0Zm-.445-.896a2.5 2.5 0 0 1 2.226 0l8 4A2.5 2.5 0 0 1 22.5 7.24v9.53a2.5 2.5 0 0 1-1.387 2.237l-8 4a2.5 2.5 0 0 1-2.237 0l-8-4h-.001A2.5 2.5 0 0 1 1.5 16.758V7.24a2.5 2.5 0 0 1 1.387-2.237l8-4Z"/><path fill-rule="evenodd" clip-rule="evenodd" d="M1.873 5.936a.5.5 0 0 1 .67-.223L12 10.44l9.456-4.728a.5.5 0 1 1 .448.894l-9.68 4.84a.5.5 0 0 1-.448 0l-9.68-4.84a.5.5 0 0 1-.223-.67Z"/><path fill-rule="evenodd" clip-rule="evenodd" d="M12 10.5a.5.5 0 0 1 .5.5v11.76a.5.5 0 0 1-1 0V11a.5.5 0 0 1 .5-.5ZM6.553 3.276a.5.5 0 0 1 .67-.223l10 5a.5.5 0 1 1-.447.894l-10-5a.5.5 0 0 1-.223-.67Z"/></symbol><symbol fill="currentColor" viewBox="0 0 24 24" id="burger" xmlns="http://www.w3.org/2000/svg"><path fill-rule="evenodd" clip-rule="evenodd" d="M2.5 12a.5.5 0 0 1 .5-.5h18a.5.5 0 0 1 0 1H3a.5.5 0 0 1-.5-.5ZM2.5 6a.5.5 0 0 1 .5-.5h18a.5.5 0 0 1 0 1H3a.5.5 0 0 1-.5-.5ZM2.5 18a.5.5 0 0 1 .5-.5h18a.5.5 0 0 1 0 1H3a.5.5 0 0 1-.5-.5Z"/></symbol><symbol fill="currentColor" viewBox="0 0 24 24" id="burger-close" xmlns="http://www.w3.org/2000/svg"><path fill-rule="evenodd" clip-rule="evenodd" d="M5.637 18.788a.5.5 0 0 1 0-.707L18.365 5.353a.5.5 0 1 1 .707.707L6.344 18.788a.5.5 0 0 1-.707 0Z"/><path fill-rule="evenodd" clip-rule="evenodd" d="M5.637 5.354a.5.5 0 0 1 .707 0L19.072 18.08a.5.5 0 1 1-.707.708L5.636 6.06a.5.5 0 0 1 0-.707Z"/></symbol><symbol fill="currentColor" viewBox="0 0 24 24" id="card-close" xmlns="http://www.w3.org/2000/svg"><path fill-rule="evenodd" clip-rule="evenodd" d="M18.354 5.646a.5.5 0 0 1 0 .708l-12 12a.5.5 0 0 1-.708-.708l12-12a.5.5 0 0 1 .708 0Z"/><path fill-rule="evenodd" clip-rule="evenodd" d="M5.646 5.646a.5.5 0 0 1 .708 0l12 12a.5.5 0 0 1-.708.708l-12-12a.5.5 0 0 1 0-.708Z"/></symbol><symbol fill="currentColor" viewBox="0 0 24 24" id="heart" xmlns="http://www.w3.org/2000/svg"><path fill-rule="evenodd" clip-rule="evenodd" d="M12.705 4.256a6 6 0 1 1 8.487 8.487l-8.84 8.84a.5.5 0 0 1-.707 0l-8.84-8.84a6.001 6.001 0 1 1 8.487-8.487l.706.707.707-.707Zm4.243-.758a5 5 0 0 0-3.536 1.465l-1.06 1.06a.5.5 0 0 1-.707 0l-1.06-1.06a5.001 5.001 0 1 0-7.073 7.073l8.486 8.487 8.487-8.487a5 5 0 0 0-3.537-8.538Z"/></symbol><symbol fill="currentColor" viewBox="0 0 24 24" id="info" xmlns="http://www.w3.org/2000/svg"><path fill-rule="evenodd" clip-rule="evenodd" d="M1.5 12C1.5 6.201 6.201 1.5 12 1.5S22.5 6.201 22.5 12 17.799 22.5 12 22.5 1.5 17.799 1.5 12ZM12 2.5a9.5 9.5 0 1 0 0 19 9.5 9.5 0 0 0 0-19Z"/><path fill-rule="evenodd" clip-rule="evenodd" d="M12 11.5a.5.5 0 0 1 .5.5v4a.5.5 0 0 1-1 0v-4a.5.5 0 0 1 .5-.5Z"/><path d="M13 8a1 1 0 1 1-2 0 1 1 0 0 1 2 0Z"/></symbol><symbol fill="none" viewBox="0 0 24 24" id="instagram" xmlns="http://www.w3.org/2000/svg"><path d="M15.75 2A6.25 6.25 0 0 1 22 8.25v7.5A6.25 6.25 0 0 1 15.75 22h-7.5A6.25 6.25 0 0 1 2 15.75v-7.5A6.25 6.25 0 0 1 8.25 2h7.5Zm-7.5 1.875A4.38 4.38 0 0 0 3.875 8.25v7.5a4.38 4.38 0 0 0 4.375 4.375h7.5a4.38 4.38 0 0 0 4.375-4.375v-7.5a4.38 4.38 0 0 0-4.375-4.375h-7.5ZM12 7.2a4.8 4.8 0 1 1 0 9.6 4.8 4.8 0 0 1 0-9.6ZM12 9c-1.653 0-3 1.345-3 3 0 1.653 1.347 3 3 3 1.654 0 3-1.346 3-3 0-1.655-1.347-3-3-3Zm5.4-3a.6.6 0 1 1 0 1.2.6.6 0 0 1 0-1.2Z" fill="url(#ja)"/><defs><linearGradient id="ja" x1="4.929" y1="19.071" x2="19.071" y2="4.929" gradientUnits="userSpaceOnUse"><stop stop-color="#FFC107"/><stop offset=".507" stop-color="#F44336"/><stop offset=".99" stop-color="#9C27B0"/></linearGradient></defs></symbol><symbol fill="currentColor" viewBox="0 0 24 24" id="log-in" xmlns="http://www.w3.org/2000/svg"><path fill-rule="evenodd" clip-rule="evenodd" d="M13.5 2a.5.5 0 0 1 .5-.5h5A2.5 2.5 0 0 1 21.5 4v16a2.5 2.5 0 0 1-2.5 2.5h-5a.5.5 0 0 1 0-1h5a1.5 1.5 0 0 0 1.5-1.5V4A1.5 1.5 0 0 0 19 2.5h-5a.5.5 0 0 1-.5-.5Z"/><path fill-rule="evenodd" clip-rule="evenodd" d="M10.646 7.646a.5.5 0 0 1 .708 0l4 4a.5.5 0 0 1 0 .708l-4 4a.5.5 0 0 1-.708-.708L14.293 12l-3.647-3.646a.5.5 0 0 1 0-.708Z"/><path fill-rule="evenodd" clip-rule="evenodd" d="M2.5 12a.5.5 0 0 1 .5-.5h12a.5.5 0 0 1 0 1H3a.5.5 0 0 1-.5-.5Z"/></symbol><symbol fill="none" viewBox="0 0 41 35" id="logo" xmlns="http://www.w3.org/2000/svg"><path d="M11.161 0c.9.361 1.164.895 1.57 1.744.344 1.089.52 2.678-.005 3.73l.338-.186c2.121-1.12 4.093-1.73 6.505-1.573v.977l-.325.052a22.103 22.103 0 0 0-3.17.828l-.38.127c-.623.212-1.217.44-1.795.753l.458.166c1.47.566 3.011 1.191 3.689 2.712l.154.446c-.313.16-.627.318-.94.477l-.53.268c-1.292.62-2.82.695-4.18.237-.869-.425-1.646-.92-2.366-1.569-1.054 1.132-1.793 2.366-2.542 3.715l.296-.17c1.437-.744 2.94-.89 4.516-.478.43.16.43.16 1.054.453 0 1.126-.558 1.74-1.3 2.517-1.413 1.275-2.688 1.5-4.565 1.447-.588-.054-.588-.054-1.174-.25v4.498l1.368-1.173c1.211-.747 2.288-1.008 3.715-.978.459.122.915.252 1.369.391.308-.046.616-.093.924-.143 1.02-.12 2.056-.08 3.083-.079h.77l1.61.001h2.05c.658-.002 1.316 0 1.973 0l.737-.002c.995.003 1.97.015 2.959.14.748.131.748.131 1.426-.113 1.52-.426 2.78-.023 4.152.676.455.302.455.302 1.432 1.28l.196-4.497-.587.195c-1.766.161-3.24.107-4.692-.977-.815-.735-1.46-1.387-1.76-2.457v-.476c1.401-.8 3.077-.847 4.63-.454.43.16.43.16 1.04.454-.69-1.215-1.403-2.292-2.346-3.324-.485.232-.89.468-1.332.782-1.332.836-2.797 1.006-4.338.782a15.73 15.73 0 0 1-2.346-1.173c.458-1.325 1.333-2.043 2.58-2.651a38.2 38.2 0 0 1 1.721-.673c-1.731-.707-3.338-1.287-5.205-1.5-.465-.064-.465-.064-.66-.26a19.668 19.668 0 0 1 0-.977c2.483-.183 4.693.551 6.843 1.76l-.035-.616c-.064-1.645-.086-3.12 1.012-4.468.425-.246.425-.246.782-.391 1.377 1.196 2.22 2.305 2.413 4.154.038 1.316-.15 2.267-.653 3.471.071.692.377 1.042.843 1.54 1.503 1.66 1.503 1.66 1.503 2.566h.391l.025-.39c.42-1.442 1.476-2.327 2.684-3.142.42-.183.42-.183.84-.188.362.2.362.2.6.717.397 1.713.373 3.379-.518 4.92-.558.78-1.197 1.56-2.067 1.994v1.564l.391-.428c.85-.851 1.99-1.693 3.223-1.742l.529.007.534.005.407.007c.174 1.817-.376 2.93-1.308 4.448-1.146 1.116-2.373 1.75-3.971 1.809.42.434.864.815 1.332 1.197 1.622 1.414 2.757 3.494 3.016 5.645.114 1.789.109 3.406-1.024 4.889-.774.85-1.63 1.327-2.781 1.419l-.727.002-.406.003c-.448.002-.897.002-1.345.001l-.965.004c-.874.004-1.747.005-2.62.005l-1.638.002c-1.904.004-3.808.005-5.712.005-1.775 0-3.55.004-5.324.01-1.524.005-3.049.007-4.573.007-.91 0-1.82.001-2.73.005-.856.004-1.712.004-2.568.001-.313 0-.627 0-.941.003-.43.003-.858.001-1.287-.002l-.727.001c-1.037-.154-1.635-.682-2.353-1.417C.873 31.462.82 29.92.994 27.959c.482-2.55 1.71-4.457 3.715-6.06.198-.194.395-.388.587-.587l-.66-.025c-1.433-.185-2.649-.987-3.532-2.114-.922-1.381-1.176-2.48-1.087-4.118 1.668-.107 2.932.24 4.313 1.198.38.366.38.366.575.757.235-.616.235-.616.195-1.368-.347-.394-.73-.69-1.145-1.01-.785-.672-1.268-1.538-1.592-2.51-.077-1.414-.118-2.77.39-4.106 1.256.033 2.066.725 2.934 1.565.436.562.817 1.143 1.173 1.76l.357-.53.474-.693.234-.347c.445-.649.896-1.217 1.477-1.755l-.129-.338c-.646-1.883-.788-3.816.046-5.664C9.81 1.221 10.461.608 11.161 0Z" fill="#AD6F2F"/><path d="m10.917 20.114.693.01.529.015a16.378 16.378 0 0 1-.965 1.698c-.998 1.668-1.284 3.008-1.186 4.95h.587l.058-.452c.329-2.274 1.079-4.377 2.985-5.805 1.052-.614 2.232-.472 3.409-.391a10.02 10.02 0 0 1-.966 1.6c-.582.861-.919 1.7-1.185 2.701l-.111.39c-.09.42-.104.795-.097 1.223l.013.733h.586c.245-.49.272-.922.342-1.466.313-1.903 1.08-3.378 2.591-4.595.95-.64 1.817-.752 2.933-.586 1.56.459 2.591 1.676 3.373 3.055.524 1.126.703 2.38.928 3.592h.587c.138-2.075-.464-3.812-1.688-5.487a7.4 7.4 0 0 1-.658-1.16c1.629-.08 2.62.038 4.02.892 1.562 1.562 2.236 3.603 2.432 5.755h.586c.189-2.092-.345-3.93-1.625-5.609l-.303-.356c-.222-.291-.222-.291-.222-.682 1.724-.104 2.945-.058 4.275 1.1 1.426 1.468 2.076 3.335 2.177 5.352l.782.195c.08-1.384-.214-2.58-.587-3.91 1.679.96 2.417 2.382 3.17 4.12.18.667.148 1.084-.041 1.745-.858.628-1.706.722-2.738.587-.384-.092-.767-.19-1.148-.293-2.125-.543-3.326-.332-5.24.714-1.152.607-2.14.78-3.416.447-.41-.14-.807-.297-1.206-.465-2.153-.868-3.548-.957-5.743-.207-2.385.755-4.062.888-6.378-.17-1.3-.546-2.135-.227-3.386.267l-.631.275c-.673.234-1.083.314-1.789.214-.474-.27-.893-.538-1.332-.855-1.046-.72-1.882-1.14-3.165-1.296.209-1.753 1.102-3.398 2.432-4.558.229-.179.46-.356.697-.525.195.391.195.391.086.752l-.172.433c-.338.947-.353 1.726-.305 2.725l.782-.195.044-.48c.264-2.227.953-3.88 2.707-5.32.86-.597 1.417-.698 2.479-.677Z" fill="#F0CC7F"/><path d="M1.972 29.133c1.562-.204 2.56.658 3.809 1.5.855.45 1.702.38 2.643.26a18.796 18.796 0 0 0 1.5-.605c.939-.367 1.642-.335 2.549.043l.582.268c2.015.877 3.643.58 5.658-.098 2.439-.818 3.939-.722 6.274.311 1.16.498 2.15.695 3.363.273.82-.338 1.61-.681 2.376-1.134 1.415-.572 2.8-.243 4.196.222 1.382.38 2.556.2 3.808-.454-.1 1.232-.401 2.17-1.311 3.066-.618.356-1.086.333-1.797.335l-.41.004c-.455.003-.91.002-1.363.001l-.977.005c-.885.005-1.77.005-2.654.005-.739 0-1.478.001-2.216.003-1.743.004-3.485.004-5.228.003-1.797-.001-3.594.003-5.392.01-1.543.006-3.086.009-4.63.008-.921 0-1.843 0-2.765.005-.867.005-1.734.004-2.6 0-.318 0-.636 0-.954.003-.435.004-.87.002-1.304-.003h-.736c-.88-.161-1.2-.476-1.835-1.099-.572-.918-.652-1.875-.586-2.932Z" fill="#F1CD7F"/><path d="M20.546 10.167c.23.452.44.9.636 1.369.572.98 1.447 1.39 2.493 1.76-.458.228-.914.45-1.381.66-.996.55-1.237 1.204-1.552 2.272-.497-.248-.536-.452-.758-.953-.316-.647-.538-1.054-1.197-1.393a23.026 23.026 0 0 0-1.37-.391c.196-.391.196-.391.537-.537l.831-.269c.798-.35 1.079-.894 1.407-1.675l.204-.479c.05-.12.1-.24.15-.364Z" fill="#AD7030"/><path d="M29.821 13.222c1.4.012 2.495.595 3.556 1.479.27.354.27.354.27.745-1.462.088-2.707.136-3.911-.782a9.501 9.501 0 0 1-.978-1.173c.312-.312.631-.251 1.063-.269ZM27.292 7.98c.22 0 .44.002.666.004.498.027.912.083 1.387.228v.39c-1.368 1.019-2.421 1.318-4.106 1.174-.611-.195-.611-.195-.978-.391 1.012-1.068 1.549-1.424 3.03-1.405Z" fill="#F3E9E1"/><path d="M15.61 8.48c.408.294.604.453.83.905-1.104.453-2.231.65-3.372.23a15.035 15.035 0 0 1-1.711-1.012v-.391c1.373-.407 3.007-.498 4.252.269Z" fill="#F4E9E1"/><path d="M39.316 16.424c-.079 1.078-.442 1.77-1.173 2.541-.792.626-1.32.978-2.346.978.079-1.078.442-1.771 1.173-2.542.792-.625 1.32-.977 2.346-.977ZM1.385 16.424c1.072.078 1.788.426 2.542 1.173.522.747.978 1.42.978 2.346-1.17-.058-1.913-.583-2.738-1.369-.544-.706-.782-1.238-.782-2.15Z" fill="#F4EAE3"/><path d="M10.966 1.955h.39c.538 1.042.587 2.119.237 3.229-.497 1.181-.497 1.181-1.214 1.66-.468-1.084-.556-2.164-.39-3.325.247-.587.537-1.099.977-1.564ZM10.685 13.259l.465-.009c.402.045.402.045.793.436-1.346 1.279-2.273 1.817-4.153 1.774l-.344-.014v-.782c.365-.326.365-.326.844-.623l.474-.302c.655-.368 1.18-.474 1.92-.48Z" fill="#F5EBE4"/><path d="M3.536 9.776c.517.074.742.153 1.108.536l.297.417.302.414c.464.734.465 1.341.456 2.19l-.005.643-.007.492c-1.015-.752-1.793-1.496-2.151-2.737a12.051 12.051 0 0 1 0-1.955Z" fill="#F5EBE5"/><path d="M29.345 1.955c.354.098.354.098.782.391.664 1.353.8 2.566.39 4.02l-.195.477c-.88-.787-1.305-1.392-1.404-2.582-.024-.857.026-1.528.427-2.306Z" fill="#F5ECE5"/><path d="M37.166 9.776c.1 1.367.007 2.374-.782 3.52-.514.586-.514.586-.978.977h-.391c-.114-1.73.074-2.857 1.185-4.204.38-.293.38-.293.966-.293Z" fill="#F5ECE6"/><path d="M26.607 21.507c1.098.258 1.587 1.045 2.151 1.955.357.811.433 1.464.391 2.347h-.39c-.287-.533-.572-1.067-.856-1.601l-.245-.456c-.391-.736-.764-1.46-1.05-2.245Z" fill="#B17431"/><path d="M19.178 21.703c-.308.883-.771 1.609-1.284 2.383-.565.841-.565.841-1.063 1.723h-.39c.084-1.546.566-2.732 1.686-3.825.464-.281.464-.281 1.05-.281Z" fill="#B07330"/><path d="M31.691 21.507c.873.267 1.262.606 1.76 1.369.532 1.062.65 1.948.586 3.128-.51-.255-.567-.493-.807-1.006l-.234-.498-.242-.524-.244-.52c-.301-.645-.593-1.272-.819-1.949Z" fill="#B0722F"/><path d="M14.094 21.507c-.34.97-.86 1.821-1.38 2.7l-.273.468-.26.441-.238.403-.195.29h-.196c.032-1.412.263-2.419 1.174-3.52.84-.782.84-.782 1.368-.782Z" fill="#AF722F"/><path d="m8.62 21.507.39.196-2.15 4.301h-.196c-.119-1.477.154-2.474.978-3.715.55-.513.55-.513.978-.782Z" fill="#AF712F"/><path d="M21.524 21.703c.842.093 1.226.546 1.76 1.173.576.907.892 1.64.782 2.737-.711-.649-1.2-1.369-1.711-2.175l-.244-.375c-.587-.919-.587-.919-.587-1.36Z" fill="#AE702E"/><path d="M14.094 14.86h.391l.159.366c.223.474.223.474.819.807-.125.056-.25.113-.38.17-.432.187-.432.187-.598.612-.39 0-.39 0-.684-.27l-.293-.317-.391-.39.378-.16c.468-.21.468-.21.6-.818Z" fill="#B2793E"/><path d="m26.803 14.86.257.366c.329.459.329.459.916.807l-.366.049c-.452.11-.452.11-.66.55l-.147.378-.978-1.173.782-.195.196-.782Z" fill="#B07437"/></symbol><symbol fill="currentColor" viewBox="0 0 24 24" id="orders" xmlns="http://www.w3.org/2000/svg"><path fill-rule="evenodd" clip-rule="evenodd" d="M5.5 21a2.5 2.5 0 1 1 5 0 2.5 2.5 0 0 1-5 0ZM8 19.5a1.5 1.5 0 1 0 0 3 1.5 1.5 0 0 0 0-3ZM17.5 21a2.5 2.5 0 1 1 5 0 2.5 2.5 0 0 1-5 0Zm2.5-1.5a1.5 1.5 0 1 0 0 3 1.5 1.5 0 0 0 0-3ZM1 .5a.5.5 0 0 0 0 1h3.58c.758 4.291 1.523 8.564 2.17 12.87a2.5 2.5 0 0 0 2.472 2.13H19.36a2.5 2.5 0 0 0 2.451-2.01l1.44-7.196A1.5 1.5 0 0 0 21.778 5.5H7.16a1.49 1.49 0 0 0-.816.24L5.492.914A.5.5 0 0 0 5 .5H1Zm5.666 6.574A.5.5 0 0 1 7.16 6.5h14.62a.5.5 0 0 1 .49.598l-1.44 7.196a1.5 1.5 0 0 1-1.47 1.206H9.222a1.5 1.5 0 0 1-1.484-1.277L6.666 7.074Z"/></symbol><symbol fill="currentColor" viewBox="0 0 24 24" id="phone" xmlns="http://www.w3.org/2000/svg"><path fill-rule="evenodd" clip-rule="evenodd" d="M.53 5.628C.3 3.782 1.88 2.5 3.577 2.5h3.591a1.5 1.5 0 0 1 1.476 1.232l.606 3.335a3.5 3.5 0 0 1-.71 2.812l-.724.904a.467.467 0 0 0-.04.537c.469.766 1.314 2.06 2.08 2.826.767.767 2.06 1.612 2.826 2.081.163.1.376.088.538-.04l.904-.724a3.5 3.5 0 0 1 2.812-.71l3.335.606a1.5 1.5 0 0 1 1.232 1.476v3.347c0 1.821-1.451 3.442-3.385 3.131-3.313-.533-8.048-2.236-11.982-6.473C2.31 12.72.893 8.515.531 5.628ZM3.577 3.5c-1.265 0-2.19.91-2.053 2.003.338 2.692 1.671 6.7 5.345 10.657 3.75 4.038 8.263 5.66 11.408 6.166 1.194.192 2.226-.797 2.226-2.144v-3.347a.5.5 0 0 0-.41-.492l-3.336-.607a2.5 2.5 0 0 0-2.009.508l-.904.723c-.478.383-1.15.441-1.684.113-.764-.468-2.151-1.367-3.01-2.226-.86-.86-1.76-2.248-2.227-3.01a1.467 1.467 0 0 1 .113-1.685l.723-.905a2.5 2.5 0 0 0 .507-2.009L7.66 3.911a.5.5 0 0 0-.492-.411H3.576Z"/></symbol><symbol fill="currentColor" viewBox="0 0 24 24" id="search" xmlns="http://www.w3.org/2000/svg"><path fill-rule="evenodd" clip-rule="evenodd" d="M2.5 10.5a8 8 0 1 1 16 0 8 8 0 0 1-16 0Zm8-7a7 7 0 1 0 0 14 7 7 0 0 0 0-14Z"/><path fill-rule="evenodd" clip-rule="evenodd" d="M15.446 15.446a.5.5 0 0 1 .708 0l5.2 5.2a.5.5 0 0 1-.708.708l-5.2-5.2a.5.5 0 0 1 0-.708Z"/></symbol><symbol fill="currentColor" viewBox="0 0 24 24" id="share" xmlns="http://www.w3.org/2000/svg"><path fill-rule="evenodd" clip-rule="evenodd" d="M14.5 5a3.5 3.5 0 1 1 7 0 3.5 3.5 0 0 1-7 0ZM18 2.5a2.5 2.5 0 1 0 0 5 2.5 2.5 0 0 0 0-5ZM2.5 12a3.5 3.5 0 1 1 7 0 3.5 3.5 0 0 1-7 0ZM6 9.5a2.5 2.5 0 1 0 0 5 2.5 2.5 0 0 0 0-5ZM14.5 19a3.5 3.5 0 1 1 7 0 3.5 3.5 0 0 1-7 0Zm3.5-2.5a2.5 2.5 0 1 0 0 5 2.5 2.5 0 0 0 0-5Z"/><path fill-rule="evenodd" clip-rule="evenodd" d="M8.158 13.258a.5.5 0 0 1 .684-.18l6.83 3.98a.5.5 0 1 1-.504.864l-6.83-3.98a.5.5 0 0 1-.18-.684ZM15.842 6.258a.5.5 0 0 1-.18.684l-6.82 3.98a.5.5 0 1 1-.504-.864l6.82-3.98a.5.5 0 0 1 .684.18Z"/></symbol><symbol viewBox="0 0 100 100" id="sprite" xmlns="http://www.w3.org/2000/svg"/><symbol fill="currentColor" viewBox="0 0 21 20" id="star" xmlns="http://www.w3.org/2000/svg"><path d="M9.368.557a1 1 0 0 1 1.793 0l2.398 4.858a1 1 0 0 0 .753.547l5.36.779a1 1 0 0 1 .554 1.706l-3.878 3.78a1 1 0 0 0-.288.886l.916 5.339a1 1 0 0 1-1.451 1.054l-4.795-2.52a1 1 0 0 0-.93 0l-4.795 2.52a1 1 0 0 1-1.451-1.054l.915-5.34a1 1 0 0 0-.287-.884L.302 8.447A1 1 0 0 1 .858 6.74l5.36-.779a1 1 0 0 0 .754-.547L9.368.557Z"/></symbol><symbol fill="none" viewBox="0 0 16 16" id="user" xmlns="http://www.w3.org/2000/svg"><path fill-rule="evenodd" clip-rule="evenodd" d="M2.333 12.667a3 3 0 0 1 3-3h5.334a3 3 0 0 1 3 3V14A.333.333 0 1 1 13 14v-1.333a2.333 2.333 0 0 0-2.333-2.334H5.334A2.333 2.333 0 0 0 3 12.667V14a.333.333 0 0 1-.667 0v-1.333ZM5 4.667a3 3 0 1 1 6 0 3 3 0 0 1-6 0Zm3-2.334A2.333 2.333 0 1 0 8 7a2.333 2.333 0 0 0 0-4.667Z" fill="#414141"/></symbol><symbol fill="none" viewBox="0 0 24 24" id="vkontakte" xmlns="http://www.w3.org/2000/svg"><path d="M11.786 17.363h1.195s.361-.04.545-.238c.17-.183.164-.525.164-.525s-.024-1.604.721-1.84c.734-.233 1.677 1.55 2.675 2.236.755.519 1.33.405 1.33.405l2.67-.038s1.398-.086.736-1.185c-.054-.09-.386-.812-1.987-2.297-1.675-1.555-1.45-1.303.568-3.992 1.229-1.637 1.72-2.638 1.566-3.065-.146-.408-1.05-.3-1.05-.3l-3.005.017s-.223-.03-.389.07c-.161.097-.265.322-.265.322S16.784 8.2 16.15 9.278c-1.339 2.274-1.875 2.394-2.094 2.252-.509-.328-.381-1.322-.381-2.027 0-2.204.333-3.123-.652-3.36-.327-.08-.567-.132-1.404-.14-1.072-.012-1.98.003-2.495.255-.342.167-.606.54-.445.562.199.026.65.121.888.446.309.42.297 1.362.297 1.362s.178 2.594-.413 2.916c-.407.221-.963-.23-2.157-2.294C6.682 8.194 6.22 7.025 6.22 7.025s-.088-.217-.247-.334c-.193-.14-.463-.186-.463-.186l-2.857.018s-.43.012-.587.198c-.14.167-.011.51-.011.51s2.238 5.233 4.77 7.872c2.324 2.42 4.962 2.26 4.962 2.26Z" fill="#1E88E5"/></symbol></svg>