<svg width="21" height="20" viewBox="0 0 21 20" fill="none" xmlns="http://www.w3.org/2000/svg">
<path d="M9.36791 0.557466C9.73472 -0.18578 10.7946 -0.185781 11.1614 0.557464L13.5587 5.41493C13.7044 5.71008 13.9859 5.91465 14.3116 5.96198L19.6722 6.74091C20.4924 6.86009 20.8199 7.86806 20.2264 8.4466L16.3475 12.2276C16.1118 12.4574 16.0042 12.7884 16.0599 13.1127L16.9755 18.4516C17.1157 19.2685 16.2582 19.8915 15.5246 19.5058L10.73 16.9851C10.4387 16.832 10.0906 16.832 9.79931 16.9851L5.0047 19.5058C4.27107 19.8915 3.41364 19.2685 3.55375 18.4516L4.46944 13.1127C4.52508 12.7884 4.41753 12.4574 4.18184 12.2276L0.302921 8.4466C-0.290596 7.86807 0.0369133 6.86009 0.857134 6.74091L6.21767 5.96198C6.54338 5.91465 6.82495 5.71008 6.97061 5.41493L9.36791 0.557466Z" fill="#BFBFBF"/>
</svg>
