<svg width="16" height="16" viewBox="0 0 16 16" fill="none" xmlns="http://www.w3.org/2000/svg">
<path fill-rule="evenodd" clip-rule="evenodd" d="M2.3335 12.6666C2.3335 11.0098 3.67664 9.66663 5.3335 9.66663H10.6668C12.3237 9.66663 13.6668 11.0098 13.6668 12.6666V14C13.6668 14.1841 13.5176 14.3333 13.3335 14.3333C13.1494 14.3333 13.0002 14.1841 13.0002 14V12.6666C13.0002 11.378 11.9555 10.3333 10.6668 10.3333H5.3335C4.04483 10.3333 3.00016 11.378 3.00016 12.6666V14C3.00016 14.1841 2.85092 14.3333 2.66683 14.3333C2.48273 14.3333 2.3335 14.1841 2.3335 14V12.6666Z" fill="#414141"/>
<path fill-rule="evenodd" clip-rule="evenodd" d="M5 4.66663C5 3.00977 6.34315 1.66663 8 1.66663C9.65685 1.66663 11 3.00977 11 4.66663C11 6.32348 9.65685 7.66663 8 7.66663C6.34315 7.66663 5 6.32348 5 4.66663ZM8 2.33329C6.71134 2.33329 5.66667 3.37796 5.66667 4.66663C5.66667 5.95529 6.71134 6.99996 8 6.99996C9.28866 6.99996 10.3333 5.95529 10.3333 4.66663C10.3333 3.37796 9.28866 2.33329 8 2.33329Z" fill="#414141"/>
</svg>
